<?xml version="1.0" encoding="UTF-8"?>
<!DOCTYPE svg PUBLIC "-//W3C//DTD SVG 1.1//EN" "http://www.w3.org/Graphics/SVG/1.1/DTD/svg11.dtd">
<!-- Creator: CorelDRAW X6 -->
<svg xmlns="http://www.w3.org/2000/svg" xml:space="preserve" width="55.822mm" height="39.9269mm" version="1.1" style="shape-rendering:geometricPrecision; text-rendering:geometricPrecision; image-rendering:optimizeQuality; fill-rule:evenodd; clip-rule:evenodd"
viewBox="0 0 5582 3993"
 xmlns:xlink="http://www.w3.org/1999/xlink">
 <defs>
  <style type="text/css">
   <![CDATA[
    .fil0 {fill:#B0CB1F}
    .fil2 {fill:#2B2A29;fill-rule:nonzero}
    .fil1 {fill:#B0CB1F;fill-rule:nonzero}
   ]]>
  </style>
 </defs>
 <g id="Layer_x0020_1">
  <metadata id="CorelCorpID_0Corel-Layer"/>
  <path class="fil0" d="M1656 1529l1 1c11,-5 16,-7 16,-28 -31,5 -29,4 -58,-3l-2 39c1,-6 4,-11 9,-15 11,-8 26,-6 34,5zm278 -346l-23 -8c3,-1 5,0 7,1 6,2 11,5 16,6zm-164 46l-5 1c1,0 2,-1 3,-1 1,0 2,0 2,0zm-23 2c-5,-1 -9,-2 -15,-5 5,2 10,4 15,5zm-225 369l0 0 0 0 0 0zm166 -146c9,-1 16,2 20,7 -5,-5 -13,-8 -20,-7zm27 26c0,6 -3,13 -9,17 5,-4 8,-10 9,-17zm499 119c0,-11 7,-21 18,-24 -5,1 -10,4 -13,9 -3,5 -5,10 -5,15zm40 -19c8,5 17,15 26,30 -7,-11 -15,-21 -26,-30zm661 53c1,0 1,-1 2,-1l-2 1 0 0zm25 1c3,2 6,5 8,9 -2,-4 -5,-7 -8,-9zm17 26c1,2 3,3 6,5l-5 -3 -1 -2zm320 -31c-3,1 -6,2 -9,3l9 -3zm-28 6c-7,-1 -14,-5 -18,-16 3,8 10,14 18,16zm172 -33c7,-6 13,-7 19,-6 -7,-1 -14,1 -19,6zm32 0c5,3 9,7 13,9 -4,-2 -9,-6 -13,-9zm317 56l1 19 0 -2 0 0 0 -2 0 0 0 -1 0 0 0 -1 0 0 0 -1 0 0 0 -1 0 0 0 -1 0 0 0 -1 0 0 0 -1 0 0 0 -1 0 0 0 -1 0 0 0 -1 0 0 0 -1 0 0 0 -1 0 0 0 -1 0 0 0 -1 0 0 0 -1 0 0 0 -1 0 0 0 -1 0 0 0 -1 0 0 0 0 0 0 0 0 0 0 0 0 0 0 0 0 0 0 0 0 0 0 0 0 0 0 0 0 0 0 0 0 0 0 0 0 0 0 0 0 0 0 0 0 0 0 0 0 0 0 1 -1 0 0 0 0 0 0 0 0 0 0 0 0 0 0 1 0 1 0 0 0 0 0 0 0 1 0 0 0 1 0 1 0 0 0 1 0 0 0 1 0 0 0 1 0 0 0 1 0 0 0 1 0 0 0 1 0 0 0 1 0 0 0 1 0 1 0 0 0 1 0 1 1 0 0 1 0 1 1 0 0 1 1 0 0 0 1 0 0 0 1 1 1 0 0 0 1 0 0 0 1 0 0 1 2c-1,-2 -1,-1 -1,-2m163 51c0,8 0,15 0,23l0 -3 0 -20zm15 181l0 1 0 -1 0 0zm22 -226c-10,0 -17,-6 -21,-13 4,8 12,13 21,13zm-21 -35c3,-7 10,-13 20,-14 -9,1 -16,6 -20,14zm-60 -298c14,-33 15,-62 27,-46l0 0 0 0c7,9 17,34 35,81 37,-14 29,-17 39,26 46,-4 23,-40 40,-35 149,48 114,-28 132,60 34,4 28,-1 35,32 51,-19 75,7 83,56 42,16 33,10 58,50 20,10 83,33 78,47 -47,131 -41,64 -89,49l0 0c-34,-6 -32,6 -63,8 -12,-1 -19,-3 -22,-6l0 0 0 0c-102,15 -111,9 -197,-11 15,138 80,227 33,317 9,29 7,23 2,55l-3 36 2 34 0 0c11,40 103,56 137,58l102 2c91,2 118,6 149,11 1,-1 1,-1 1,-2l2 3c72,14 -5,36 -72,32l0 0 -358 2 0 0c-260,5 -130,3 -389,5l0 0c-658,2 -1314,6 -1973,-1l0 0 -590 -1 0 0c-56,-3 -66,-2 -95,-13 -152,-60 399,-51 475,-50 13,-25 40,-30 54,-47 -14,-170 -9,-306 -3,-473 -72,74 12,36 -102,66l0 0c-57,15 -73,5 -116,-18 -3,71 -6,240 -15,254 -82,130 -62,-176 -54,-271l-29 9c-111,32 -117,-52 -45,-83 -11,-34 -25,-36 1,-57 -51,-62 -42,-63 83,-50 44,-15 49,-14 66,12l17 -12c7,-8 11,-11 17,-15 1,-53 -4,-48 43,-66l-17 -55c-5,-30 94,-56 119,15 20,-14 21,-12 53,0l32 -16c-5,-31 -7,-50 0,-86l0 0c27,-39 61,-23 81,-42 21,-25 33,-14 61,0 3,1 3,1 4,1 6,-3 9,-4 17,-3 10,2 20,3 27,10l14 -1c7,-35 21,-30 60,-17 -1,-19 5,-34 30,-44l0 0c8,-2 15,-2 21,-1 -1,-3 -1,-6 -1,-11 13,-69 41,-71 70,-56 -5,-18 -5,-26 7,-41 -6,-5 -10,-11 -17,-22 -32,-19 -45,-95 58,-79 24,-59 117,-56 148,0 49,-1 68,-8 83,-3 -1,-70 -54,-59 59,-80 23,-45 17,-52 63,-49l0 0c27,-20 43,-12 59,7 10,-17 29,-20 75,-52 -5,-31 -9,-39 8,-51 -24,-61 -15,-56 63,-63l1 -2 0 0c50,-94 83,11 98,52 18,-3 31,-4 39,0 0,-79 120,-63 136,48 13,2 26,4 37,10l47 -11 0 -32c-1,-147 124,-31 139,-12 48,65 2,89 -32,125l16 9c20,-20 33,-25 59,-24 7,-55 128,-113 112,0 11,-9 21,-6 38,5 33,-46 76,-82 107,-25 133,-12 45,38 26,106 20,2 43,6 56,15 87,63 124,55 136,76 41,1 28,78 5,123 17,0 19,17 15,40 24,-8 35,-4 39,9 3,3 5,6 7,10 29,6 66,39 82,51 3,3 5,7 6,10 10,6 25,11 46,11 16,0 30,0 42,1 65,8 53,22 36,47m-851 -568c-4,-3 -7,-7 -9,-10 3,4 6,7 9,10zm-14 -16c-3,-4 -8,-7 -17,-10 7,3 13,6 17,10zm-124 98c-4,0 -7,-2 -9,-3 3,1 6,2 9,3zm-15 -7c-1,0 -1,-1 -2,-1l1 0 1 1zm-248 -132c0,1 -1,1 -1,2l0 -1 1 -2zm-14 25c-4,2 -9,4 -16,5 1,0 2,-1 3,-1 5,-1 9,-2 13,-4zm-1094 1475c0,0 -1,1 -1,1l1 -1zm-3 2l0 0 0 0 0 0 0 0 0 0zm2077 -1c-81,-4 -126,-1 -150,-7 23,5 64,3 138,6l11 1zm-175 -35c-3,-17 -1,-45 -1,-87 0,42 -2,69 1,87zm-482 -195l0 6 1 2c0,-3 0,-5 -1,-8zm104 137l7 5 24 33c16,18 31,26 61,27 4,-130 2,-65 6,-210l0 3c0,-159 -2,-99 6,-221l-4 2c-9,69 -88,118 -144,71 -28,4 -42,3 -51,-7 -5,72 -11,178 33,223 28,30 48,54 63,73zm135 -96l6 7c-2,-7 -3,-15 -5,-22l-1 15zm586 -304l-1 2c0,5 1,11 1,17m-1202 64c-8,5 -18,4 -26,-1l-54 32c-20,66 -37,47 -94,3 1,72 8,163 3,206 -2,13 -14,23 -27,21 -13,-2 -23,-14 -21,-27l1 -5 0 -1 -1 -5 0 -2c-22,-45 -14,-167 -14,-181l0 0c-3,-38 -10,-94 -8,-141 -4,3 -11,1 -27,-4l-2 38c2,22 0,46 -3,70 -9,201 -8,116 13,380 69,2 238,15 273,-23l0 0c53,-80 48,-165 41,-258l0 0c-8,-25 -28,-76 -53,-102zm-224 145l-1 -26c0,9 1,18 1,26zm-465 -122c-33,221 -19,21 -8,240l0 0c-2,85 -3,51 4,119l46 -1 32 0c-24,-55 -12,-57 -18,-127l0 0c-30,-98 -23,-136 -15,-221 -23,8 -32,6 -40,-10zm1403 -138c32,22 -18,22 -70,26 -1,43 -13,246 -12,250 21,145 10,108 19,221l68 2 78 -2 14 -108c-16,-91 -10,-45 -14,-141 11,-77 35,-166 15,-243 -41,16 -41,18 -67,-16l-32 12zm771 301c9,7 14,22 10,51 0,2 1,5 2,7l0 0c2,6 4,9 5,12 4,-11 7,-20 9,-26 -7,-22 -52,-257 -58,-280l0 0c-4,-20 -5,-29 -6,-34l-1 0c18,87 -22,93 29,238l0 0c5,14 9,24 11,32zm-461 63l0 -5c-4,1 -7,3 -10,6l10 -1zm288 -296c-18,3 -37,4 -50,-5 -14,7 -20,10 -26,8l-1 108 0 0c-4,109 25,199 -24,228 6,25 11,61 10,96 35,1 129,5 141,-9 2,-4 8,-81 16,-129 0,0 5,-60 5,-61 -6,-42 -9,-107 -11,-160l-3 46c1,98 3,49 -4,149l0 2c1,9 -2,18 -10,25l-1 0c-41,45 -42,-241 -42,-300zm-439 -43c13,107 11,86 -2,218l0 0c-1,169 -3,87 6,252 99,8 122,11 148,12 -8,-23 -16,-62 -19,-116 1,-14 0,-13 4,-25l3 0c1,-5 1,-4 1,-6 -2,-5 -2,-10 -1,-14 -50,-42 -12,-126 -18,-258 -11,-18 -28,-8 -56,-66 -28,14 -41,19 -66,5zm190 482c22,0 54,-1 109,-2 1,-41 3,-71 6,-91 -17,-11 -24,-59 -25,-119 -17,27 -43,4 -49,-33l0 0c-3,-144 -5,-98 2,-191l-33 17 -5 199 4 19 6 24 0 0c1,88 -6,146 -16,177zm337 -160c2,7 3,16 5,27 7,40 6,83 10,125l3 0c12,-106 -13,-127 45,-137 -1,-7 -2,-17 -4,-25 -16,11 -31,-6 -44,-28 0,2 -1,3 -1,5 -5,20 -9,31 -13,33zm-8 -284l0 0 1 -1 -1 1zm150 185c1,18 2,33 2,46l5 -8c-1,-8 -3,-21 -7,-37zm-1893 -265c-3,2 -6,4 -8,5 -38,29 -23,317 -12,377l0 0c-2,98 0,63 -7,130l18 0 20 0c2,-165 10,-331 10,-494l-15 -11c-3,-2 -5,-5 -7,-8zm-189 516l55 -1 48 -1c2,-67 1,-35 4,-112l-6 -56 -6 -60 0 0c6,-93 0,-126 -3,-205l-58 19c-114,105 -118,244 -35,415zm-265 -57l-10 0 3 -36c-16,-107 -22,-301 -22,-309l0 0c5,-27 14,-55 12,-82 -23,9 -28,9 -43,-9 -33,22 -44,-17 -88,-74 -3,-4 -4,-8 -5,-13 -1,14 -1,18 -4,65l7 67 1 69 0 0c-15,261 -14,137 -2,384 134,-3 76,-2 202,-4 -5,-46 -9,-81 -13,-109 -3,30 -6,52 -8,59 -13,42 -24,31 -32,-6zm5 -841c-2,-2 -3,-3 -4,-5 1,2 2,3 4,5zm2158 98l0 0 0 0"/>
  <path class="fil1" d="M2791 0c588,0 1120,238 1505,623 385,385 623,917 623,1505 0,111 -8,219 -25,325l-90 0c17,-106 26,-214 26,-325 0,-563 -228,-1073 -597,-1442 -369,-369 -879,-597 -1442,-597 -563,0 -1073,228 -1442,597 -369,369 -597,879 -597,1442 0,111 9,219 26,325l-90 0c-16,-106 -25,-215 -25,-325 0,-588 238,-1120 623,-1505 385,-385 917,-623 1505,-623z"/>
  <polygon class="fil2" points="2464,3987 2464,3935 2423,3935 2423,3987 "/>
  <polygon id="1" class="fil2" points="2567,3987 2567,3935 2526,3935 2526,3987 "/>
  <polygon id="2" class="fil2" points="2670,3987 2670,3935 2629,3935 2629,3987 "/>
  <polygon id="3" class="fil2" points="2774,3987 2774,3604 2739,3610 2739,3987 "/>
  <path id="4" class="fil2" d="M3042 3856c0,-70 -33,-127 -102,-127 -62,0 -109,50 -109,131 0,87 48,132 114,132 39,0 72,-14 97,-36l-5 -32c-26,22 -56,37 -89,37 -51,0 -80,-37 -81,-99l176 0c0,-3 0,-5 0,-7zm-36 -20l-138 0c7,-49 33,-78 72,-78 41,0 62,33 66,78z"/>
  <path id="5" class="fil2" d="M3275 3987l0 -180c0,-52 -29,-78 -85,-78 -36,0 -65,9 -94,22l5 32c28,-13 57,-22 87,-22 32,0 52,14 52,49l0 17c-114,11 -162,39 -162,98 0,45 32,69 75,69 36,0 66,-17 89,-39l6 34 27 0zm-35 -62c-25,23 -54,38 -82,38 -27,0 -45,-14 -45,-41 0,-34 28,-58 127,-68l0 72z"/>
  <polygon id="6" class="fil2" points="3531,3735 3494,3735 3422,3946 3347,3731 3312,3738 3404,3989 3437,3989 "/>
  <path id="7" class="fil2" d="M3762 3856c0,-70 -33,-127 -102,-127 -62,0 -109,50 -109,131 0,87 48,132 114,132 39,0 72,-14 97,-36l-5 -32c-26,22 -56,37 -89,37 -51,0 -80,-37 -81,-99l176 0c0,-3 0,-5 0,-7zm-36 -20l-138 0c7,-49 33,-78 72,-78 41,0 62,33 66,78z"/>
  <path id="8" class="fil2" d="M4135 3987l0 -181c0,-49 -25,-77 -75,-77 -34,0 -63,18 -91,43l-6 -37 -27 0 0 253 35 0 0 -183c28,-27 55,-44 82,-44 32,0 47,20 47,52l0 174 35 0z"/>
  <path id="9" class="fil2" d="M4413 3861c0,-84 -49,-132 -115,-132 -64,0 -113,48 -113,132 0,83 49,131 113,131 65,0 115,-48 115,-131zm-36 0c0,60 -27,102 -79,102 -50,0 -77,-43 -77,-102 0,-60 27,-102 77,-102 51,0 79,44 79,102z"/>
  <path id="10" class="fil2" d="M4700 3987l-5 -29c-6,1 -15,3 -24,3 -27,0 -37,-11 -37,-37l0 -159 63 0 -5 -30 -58 0 0 -93 -35 6 0 88 -39 0 0 30 39 0 0 165c0,46 26,62 66,62 15,0 28,-2 35,-4z"/>
  <path id="11" class="fil2" d="M4879 3762l-6 -33c-42,1 -71,29 -90,57l-8 -52 -26 0 0 253 35 0 0 -159c17,-34 53,-64 95,-66z"/>
  <path id="12" class="fil2" d="M5090 3987l0 -180c0,-52 -29,-78 -85,-78 -36,0 -65,9 -94,22l5 32c28,-13 57,-22 87,-22 32,0 52,14 52,49l0 17c-114,11 -162,39 -162,98 0,45 32,69 75,69 36,0 66,-17 89,-39l6 34 27 0zm-35 -62c-25,23 -54,38 -82,38 -27,0 -45,-14 -45,-41 0,-34 28,-58 127,-68l0 72z"/>
  <path id="13" class="fil2" d="M5341 3964l-5 -32c-26,22 -50,30 -77,30 -51,0 -82,-38 -82,-101 0,-62 31,-101 79,-101 29,0 53,10 77,30l6 -35c-21,-15 -48,-26 -82,-26 -64,0 -115,47 -115,132 0,83 50,131 114,131 34,0 61,-10 85,-29z"/>
  <path id="14" class="fil2" d="M5582 3856c0,-70 -33,-127 -102,-127 -62,0 -109,50 -109,131 0,87 48,132 114,132 39,0 72,-14 97,-36l-5 -32c-26,22 -56,37 -89,37 -51,0 -80,-37 -81,-99l176 0c0,-3 0,-5 0,-7zm-36 -20l-138 0c7,-49 33,-78 72,-78 41,0 62,33 66,78z"/>
  <path class="fil1" d="M705 3093c0,-224 -107,-403 -344,-403 -206,0 -360,156 -360,413 0,285 165,411 387,411 128,0 231,-38 316,-97l-23 -154c-87,61 -170,98 -272,98 -121,0 -203,-67 -213,-221l508 0c0,-11 2,-31 2,-48zm-192 -75l-315 0c15,-129 79,-192 157,-192 95,0 144,69 157,192z"/>
  <path id="1" class="fil1" d="M1359 3498l0 -542c0,-190 -102,-265 -306,-265 -126,0 -223,28 -315,64l25 157c85,-38 172,-64 264,-64 87,0 136,33 136,118l0 23c-320,31 -477,115 -477,306 0,138 90,220 224,220 118,0 200,-52 264,-120l16 103 169 0zm-197 -218c-54,54 -118,85 -185,85 -61,0 -97,-34 -97,-92 0,-75 54,-143 282,-170l0 177z"/>
  <path id="2" class="fil1" d="M1898 2885l-31 -195c-123,7 -202,84 -254,175l-25 -159 -167 0 0 791 197 0 0 -454c56,-85 157,-151 280,-159z"/>
  <path id="3" class="fil1" d="M2330 3498l-25 -165c-18,5 -39,7 -62,7 -75,0 -105,-34 -105,-98l0 -374 187 0 -25 -161 -162 0 0 -280 -193 29 0 251 -111 0 0 161 111 0 0 406c0,180 105,238 261,238 57,0 93,-7 125,-13z"/>
  <path id="4" class="fil1" d="M3019 3498l0 -570c0,-147 -79,-238 -226,-238 -105,0 -187,56 -252,116l0 -492 -197 31 0 1152 197 0 0 -534c57,-61 118,-100 180,-100 72,0 102,48 102,116l0 518 197 0z"/>
  <polygon id="5" class="fil2" points="4126,2723 4018,2723 3825,3353 3632,2719 3537,2719 3343,3353 3143,2709 3038,2729 3296,3502 3386,3502 3582,2867 3777,3502 3869,3502 "/>
  <path id="6" class="fil2" d="M4307 2459c0,-43 -34,-79 -77,-79 -43,0 -79,36 -79,79 0,43 36,79 79,79 43,0 77,-36 77,-79zm-25 1039l0 -775 -107 0 0 775 107 0z"/>
  <path id="7" class="fil2" d="M4920 3288c0,-138 -88,-197 -272,-246 -131,-34 -174,-67 -174,-131 0,-64 51,-110 157,-110 77,0 156,23 226,61l18 -103c-69,-31 -149,-52 -241,-52 -161,0 -264,88 -264,210 0,128 74,184 246,228 154,41 200,75 200,152 0,79 -67,125 -175,125 -103,0 -198,-38 -270,-84l-18 105c67,38 175,70 279,70 179,0 288,-84 288,-224z"/>
  <path id="8" class="fil2" d="M5582 3095c0,-215 -102,-388 -313,-388 -190,0 -334,154 -334,403 0,267 146,405 349,405 120,0 220,-44 297,-110l-16 -98c-80,69 -170,115 -274,115 -156,0 -244,-113 -247,-303l539 0c0,-8 0,-16 0,-23zm-111 -62l-423 0c21,-149 100,-239 221,-239 125,0 190,100 202,239z"/>
  <g id="_1024441488">
   <path class="fil0" d="M4122 883c-4,0 -9,0 -13,1l-7 8c-5,0 -8,2 -8,7 0,4 -5,5 -9,6 -8,2 -19,1 -27,-1 -11,-3 -21,-8 -29,-15 -3,-2 -5,-4 -8,-7 -1,-1 -1,-1 -2,-2 -11,-10 -28,-22 -40,-31 -3,-2 -6,-4 -9,-6 -10,-8 -5,-6 -18,-11 -1,3 5,7 7,9 1,1 1,1 2,2 1,1 1,1 2,2 8,8 4,6 10,14 2,3 5,5 8,8 -2,8 9,10 11,16 3,10 4,10 10,16l-5 11c-9,1 -6,3 -9,4 -3,1 -5,0 -7,0 -6,1 -13,2 -19,4 -4,1 -8,3 -12,4 -4,1 -10,1 -12,4 -2,2 -2,2 -5,2 -7,1 -18,1 -22,2l-25 6c0,4 5,5 8,5 4,1 8,1 12,1 27,0 49,4 78,2 21,-1 43,-2 64,2 9,2 4,1 10,4l19 9c-9,0 -11,6 -13,7 -2,1 -2,2 -2,5 0,11 -12,4 -10,17 1,5 0,4 -2,7l-1 7c-9,4 -10,3 -14,8 -2,3 -10,8 -14,9 -11,4 -24,8 -32,14 -5,4 -5,7 -12,11 -5,3 -7,5 -14,9 -6,4 -22,11 -25,18 0,1 0,2 0,2 3,2 10,-3 13,-4 9,-4 91,-25 101,-27 26,-6 36,-7 63,-10 11,-1 21,-3 31,-5 6,-2 7,-4 12,-6 4,-2 9,-3 14,-5 10,-4 15,-9 22,-14 3,-2 5,-9 7,-11 3,-2 9,-4 13,-6 9,-4 15,-7 23,-13 14,-11 22,-26 33,-40 3,-4 6,-5 10,-8 6,-4 -4,-7 -7,-8 -7,-3 -2,-13 -20,-16 -14,-2 -21,2 -31,5 -4,1 -4,1 -6,-2 -6,-9 -4,-12 -6,-21 -1,-5 -3,-9 -5,-13 -2,-4 -6,-8 -8,-10 -6,-6 -13,-11 -20,-16 -13,-11 -28,-21 -44,-29 -16,-9 -31,-17 -47,-26 -8,-4 -16,-9 -24,-13 -12,-6 -23,-14 -37,-18 -11,-3 -4,8 4,10 2,0 9,7 10,8 4,4 5,5 9,10 8,10 24,19 29,26l8 11c1,2 2,4 4,5 8,14 12,11 19,18 3,3 1,3 1,7 0,5 5,7 7,12 1,2 1,5 2,8 2,4 7,8 8,10z"/>
   <path class="fil0" d="M3850 993c-3,0 -6,0 -8,1l-4 5c-3,0 -5,1 -5,4 0,2 -3,3 -5,4 -5,1 -12,1 -17,0 -7,-2 -13,-5 -18,-10 -2,-2 -3,-3 -5,-4 0,0 -1,-1 -1,-1 -7,-6 -17,-14 -25,-19 -2,-1 -4,-3 -5,-4 -6,-5 -3,-4 -11,-7 0,2 3,4 4,5 1,0 1,1 1,1 1,1 1,0 1,1 5,5 3,4 6,9 1,2 3,3 5,5 -1,5 6,6 7,10 2,6 3,6 7,10l-3 7c-6,0 -4,2 -6,3 -2,0 -3,0 -5,0 -4,1 -8,2 -12,3 -2,1 -5,2 -7,2 -2,1 -6,1 -8,2 -1,1 -1,1 -3,1 -4,1 -11,1 -13,1l-16 4c0,3 3,3 5,3 2,0 5,1 8,1 17,0 31,2 49,1 13,-1 27,-1 40,1 5,1 2,1 6,2l12 6c-6,0 -7,3 -8,4 -1,1 -1,1 -1,3 0,7 -7,3 -6,11 0,3 0,3 -1,5l-1 4c-5,3 -6,2 -9,5 -1,2 -6,5 -8,6 -7,2 -15,5 -20,9 -3,3 -3,4 -8,7 -3,2 -4,3 -9,6 -4,2 -14,7 -16,11 0,0 0,1 0,1 2,1 7,-2 8,-3 6,-3 56,-15 63,-17 16,-4 23,-4 39,-6 7,-1 13,-2 19,-3 4,-1 5,-2 8,-4 3,-1 6,-2 8,-3 6,-2 9,-6 14,-9 2,-1 3,-6 4,-7 2,-1 6,-3 8,-4 6,-3 10,-4 14,-8 8,-7 14,-16 20,-25 2,-3 4,-3 6,-5 4,-3 -3,-4 -5,-5 -4,-2 -2,-8 -13,-10 -9,-1 -13,1 -19,3 -2,1 -3,0 -4,-1 -3,-6 -3,-7 -4,-13 -1,-3 -2,-6 -3,-8 -1,-2 -3,-5 -5,-6 -4,-3 -8,-7 -13,-10 -8,-7 -18,-13 -27,-18 -10,-6 -19,-11 -29,-16 -5,-3 -10,-5 -15,-8 -7,-4 -15,-9 -23,-11 -7,-2 -3,5 3,6 1,0 5,4 6,5 2,3 3,3 5,6 5,6 15,12 18,16l5 7c1,1 2,2 2,3 5,8 7,7 12,11 2,2 1,2 1,4 0,3 3,5 4,7 1,1 0,3 1,5 1,3 4,5 5,6z"/>
  </g>
 </g>
</svg>
